HIERARCHY
ROOT hip
{
	OFFSET 0.000000 0.000000 0.000000 
	CHANNELS 6 Xposition Yposition Zposition Xrotation Zrotation Yrotation
	JOINT abdomen
	{
		OFFSET 0.000000 3.402643 0.000000 
		CHANNELS 3 Xrotation Zrotation Yrotation
		JOINT chest
		{
			OFFSET 0.000000 8.438565 -0.680529 
			CHANNELS 3 Xrotation Zrotation Yrotation
			JOINT neck
			{
				OFFSET 0.000000 10.207942 -0.272212 
				CHANNELS 3 Xrotation Zrotation Yrotation
				JOINT head
				{
					OFFSET 0.000000 3.130431 0.000000 
					CHANNELS 3 Xrotation Zrotation Yrotation
					End Site
					{
						OFFSET 0.000000 3.130435 0.000000 
					}
				}
			}
			JOINT lCollar
			{
				OFFSET 3.470700 6.669187 -0.816635 
				CHANNELS 3 Yrotation Zrotation Xrotation
				JOINT lShldr
				{
					OFFSET 3.198488 0.000000 0.000000 
					CHANNELS 3 Zrotation Yrotation Xrotation
					JOINT lForeArm
					{
						OFFSET 10.139888 0.000000 0.000000 
						CHANNELS 3 Yrotation Zrotation Xrotation
						JOINT lHand
						{
							OFFSET 8.370511 0.000000 0.000000 
							CHANNELS 3 Zrotation Yrotation Xrotation
							End Site
							{
								OFFSET 4.083176 0.000000 0.000000 
							}
						}
					}
				}
			}
			JOINT rCollar
			{
				OFFSET -3.470700 6.669187 -0.816635 
				CHANNELS 3 Yrotation Zrotation Xrotation
				JOINT rShldr
				{
					OFFSET -3.198488 0.000000 0.000000 
					CHANNELS 3 Zrotation Yrotation Xrotation
					JOINT rForeArm
					{
						OFFSET -10.139888 0.000000 0.000000 
						CHANNELS 3 Yrotation Zrotation Xrotation
						JOINT rHand
						{
							OFFSET -8.370511 0.000000 0.000000 
							CHANNELS 3 Zrotation Yrotation Xrotation
							End Site
							{
								OFFSET -4.083176 0.000000 0.000000 
							}
						}
					}
				}
			}
		}
	}
	JOINT lThigh
	{
		OFFSET 5.308129 -1.633274 1.361059 
		CHANNELS 3 Xrotation Zrotation Yrotation
		JOINT lShin
		{
			OFFSET -2.041588 -20.007561 0.000000 
			CHANNELS 3 Xrotation Zrotation Yrotation
			JOINT lFoot
			{
				OFFSET 0.000000 -19.190928 -1.224953 
				CHANNELS 3 Xrotation Yrotation Zrotation
				End Site
				{
					OFFSET 0.000000 -2.449906 4.627600 
				}
			}
		}
	}
	JOINT rThigh
	{
		OFFSET -5.308129 -1.633274 1.361059 
		CHANNELS 3 Xrotation Zrotation Yrotation
		JOINT rShin
		{
			OFFSET 2.041588 -20.007561 0.000000 
			CHANNELS 3 Xrotation Zrotation Yrotation
			JOINT rFoot
			{
				OFFSET 0.000000 -19.190928 -1.224953 
				CHANNELS 3 Xrotation Yrotation Zrotation
				End Site
				{
					OFFSET 0.000000 -2.449906 4.627600 
				}
			}
		}
	}
}
MOTION
Frames: 16
Frame Time: 0.016667
0.319837 46.796284 0.743528 -1.822889 -4.765088 -0.862894 30.250225 -0.321428 4.130904 -24.071396 -1.587542 4.190818 -5.559864 -5.414055 -17.139660 2.115481 -0.871191 -18.371393 -0.966710 0.507977 -0.009850 -71.114685 17.270370 16.134941 -14.879485 -2.187528 -27.421524 -8.911274 14.738579 -2.292624 7.050973 1.131614 -0.009883 66.079079 15.425209 7.650940 35.572758 -1.975310 21.815065 15.436200 -4.721157 -1.322384 -25.505775 7.724029 5.610413 27.866175 -1.245818 -2.393376 -6.279906 -8.052000 -13.172859 3.485796 3.573505 -8.844686 30.370302 1.130174 2.503088 -31.931999 5.986364 16.411860 
0.358598 46.564831 1.772719 -2.238617 -5.009037 -0.980507 30.505739 -0.155801 4.345713 -24.081474 -1.548349 4.307968 -5.348443 -5.358457 -16.794924 1.985343 -1.151738 -17.992178 -1.074172 0.273621 -0.009810 -71.284378 17.703505 14.912786 -13.979449 -2.095007 -26.332628 -8.911255 14.980167 -2.329147 7.353698 1.082734 -0.009868 65.635681 16.335026 7.049608 37.238873 -1.953110 21.450872 14.504428 -3.713483 -0.970451 -26.007723 8.150923 5.714561 23.797255 -1.397198 -2.127535 -6.071243 -9.815688 -13.349550 4.830698 3.668619 -8.525487 31.317732 1.076400 2.576178 -32.771935 5.705496 16.367365 
0.406109 46.367420 2.878810 -2.478199 -5.038894 -0.471227 30.364658 -0.087655 4.199214 -23.706593 -1.285681 4.151316 -5.505272 -5.374647 -16.550123 1.678176 -1.246330 -17.748510 -1.259719 0.273652 -0.009810 -71.710526 17.595884 14.223960 -13.140794 -1.981037 -24.804581 -9.042849 15.216480 -2.398954 7.548959 0.770202 -0.009811 65.801277 16.724085 5.818734 39.421299 -1.826459 20.233557 14.648244 -4.580594 -1.205899 -26.358246 7.984628 5.353351 20.740816 -1.494732 -1.966094 -6.728550 -10.646145 -13.575348 6.222846 3.578305 -8.810910 31.972420 1.046830 2.611118 -33.013504 5.614662 16.341394 
0.453617 46.170021 3.984838 -2.719174 -5.068357 0.048637 30.222542 -0.029224 4.052734 -23.332470 -1.013158 3.994724 -5.661292 -5.390495 -16.315042 1.367272 -1.331839 -17.505104 -1.445264 0.283449 -0.009811 -72.129265 17.477465 13.540266 -12.295496 -1.844388 -23.269745 -9.164770 15.452977 -2.469742 7.744216 0.447903 -0.009753 65.955261 17.126593 4.584069 41.622375 -1.735690 19.016438 14.796079 -5.456042 -1.449535 -26.707590 7.812192 4.995770 17.680243 -1.594928 -1.771727 -7.369600 -11.489329 -13.791876 7.634790 3.514171 -9.104053 32.636288 1.022723 2.657466 -33.267277 5.502649 16.323786 
0.561106 46.021069 5.153835 -2.981048 -4.902240 0.372240 30.007494 -0.175369 3.925792 -22.690475 -0.779399 3.945611 -6.209773 -5.245207 -16.134630 1.215283 -1.426723 -17.281052 -1.455028 0.293217 -0.009812 -72.460815 16.835695 13.078086 -11.830388 -1.745572 -21.945681 -9.255435 15.439533 -2.491646 7.724643 0.194000 -0.009710 66.309601 17.163496 3.687139 43.864075 -1.476374 16.581356 14.627060 -6.774734 -1.773659 -26.461458 7.450020 4.949664 16.875937 -1.613994 -1.702642 -8.098325 -12.128698 -14.069263 9.077298 3.181224 -9.179169 33.261890 0.993224 2.680923 -32.630928 5.519404 16.222561 
0.668595 45.872124 6.322790 -3.231274 -4.735981 0.695023 29.802164 -0.331298 3.808643 -22.048218 -0.535868 3.896587 -6.759145 -5.089961 -15.963173 1.062299 -1.521893 -17.047272 -1.464792 0.302984 -0.009814 -72.787674 16.192682 12.610351 -11.370919 -1.638988 -20.619232 -9.346088 15.426054 -2.516114 7.714834 -0.059905 -0.009677 66.663651 17.200092 2.803977 46.111412 -1.321474 14.138632 14.455563 -8.105378 -2.092612 -26.216194 7.068609 4.924653 16.088917 -1.640672 -1.664236 -8.822045 -12.754891 -14.317041 10.533601 2.859987 -9.279527 33.895870 0.958471 2.741591 -32.001820 5.528680 16.140072 
0.828026 45.788448 7.594626 -3.567662 -4.638261 0.763962 29.552971 -0.409260 3.789105 -21.891674 -0.243571 3.916022 -6.682520 -4.972232 -15.783836 1.054533 -1.514050 -16.861534 -1.455027 0.302982 -0.009814 -73.164307 15.902562 12.326848 -11.420002 -1.603751 -20.209293 -9.105322 15.484425 -2.458595 7.968689 -0.362682 -0.009671 67.227554 16.042122 2.469880 47.696152 -1.145133 12.450768 13.419497 -7.473660 -1.798503 -25.440830 6.852428 5.088437 17.356976 -1.601701 -1.736118 -8.274928 -13.659431 -14.339171 11.720568 2.477991 -9.136076 34.989609 0.909424 2.801384 -29.440998 5.579455 15.752469 
0.987465 45.704788 8.866468 -3.894191 -4.550303 0.832110 29.313515 -0.487219 3.779409 -21.724495 0.058456 3.935555 -6.616714 -4.844604 -15.614294 1.059134 -1.515605 -16.666298 -1.445259 0.312746 -0.009816 -73.529724 15.607645 12.052631 -11.470175 -1.569293 -19.799536 -8.874977 15.551833 -2.404701 8.222544 -0.665459 -0.009665 67.803017 14.883969 2.131506 49.293079 -1.032399 10.753316 12.375778 -6.838746 -1.507422 -24.666492 6.630466 5.261361 18.603119 -1.565706 -1.825862 -7.722114 -14.529131 -14.324537 12.936923 2.108205 -9.005910 36.083775 0.866101 2.842802 -26.871986 5.612962 15.372053 
1.206558 45.704643 10.289611 -4.389007 -4.316081 0.704806 28.930725 -0.662611 3.789261 -22.150702 0.107160 4.003917 -5.412493 -4.271474 -15.571863 1.016110 -1.478935 -16.568420 -1.728406 0.644826 -0.009870 -73.903564 16.035076 12.200473 -11.832252 -1.594177 -20.095982 -8.933549 15.328588 -2.377525 8.613179 -0.606931 -0.009655 68.536057 12.545729 2.441584 50.107243 -0.935535 9.738584 11.503845 -5.145072 -1.065464 -23.489662 6.237964 5.720226 20.525011 -1.507883 -1.947224 -6.703748 -14.510324 -14.039983 13.952314 1.493428 -8.758635 37.675468 0.787740 2.916520 -22.722052 5.887627 14.930159 
1.425655 45.704521 11.712745 -4.875300 -4.101355 0.577490 28.547869 -0.837998 3.799136 -22.567028 0.155856 4.072303 -4.195690 -3.707730 -15.521989 0.972967 -1.442296 -16.460531 -2.021318 0.976907 -0.009925 -74.279121 16.453253 12.347414 -12.195077 -1.613216 -20.400616 -8.994399 15.094249 -2.360238 9.003814 -0.548403 -0.009645 69.242790 10.206954 2.714543 50.925362 -0.845656 8.723058 10.654827 -3.443762 -0.657948 -22.325312 5.846331 6.152276 22.425432 -1.449626 -2.065943 -5.662636 -14.463194 -13.771517 14.954547 0.858307 -8.516899 39.246307 0.703354 3.014606 -18.558491 6.111127 14.433493 
1.677790 45.815849 13.129483 -5.011051 -3.583854 0.489158 27.833290 -1.286769 3.418641 -23.285290 0.662550 3.867493 -2.646951 -3.560188 -15.342864 0.989782 -1.246559 -16.312702 -2.392473 0.615642 -0.009861 -74.352318 17.111526 12.416595 -12.853290 -1.663569 -20.877018 -9.265604 14.985274 -2.423014 9.560428 -0.714513 -0.009629 69.857140 7.285153 3.719098 51.304852 -0.686807 6.870343 10.732101 -3.356510 -0.645717 -21.204508 5.241654 6.632714 24.334141 -1.377809 -2.200291 -6.213253 -14.201134 -13.869529 14.975386 -0.059514 -8.441971 41.500450 0.572632 3.127512 -12.632151 5.983218 13.680549 
1.929922 45.927189 14.546206 -5.148470 -3.076097 0.400862 27.123854 -1.745575 3.048137 -24.006546 1.179227 3.662941 -1.102513 -3.431367 -15.155298 1.010330 -1.059897 -16.165051 -2.753862 0.264141 -0.009799 -74.425438 17.758121 12.487668 -13.509296 -1.693728 -21.348682 -9.533971 14.877646 -2.478072 10.117040 -0.880622 -0.009613 70.419174 4.361164 4.679122 51.690948 -0.533919 5.020135 10.819167 -3.269187 -0.634391 -20.085306 4.628298 7.083009 26.223110 -1.304128 -2.302384 -6.755737 -13.958598 -13.980454 14.997313 -0.996768 -8.361217 43.744854 0.455120 3.221256 -6.742808 5.827665 12.959111 
2.175048 46.114372 15.807071 -4.839170 -2.323963 0.850098 26.453411 -2.322494 2.208779 -24.502026 1.628494 3.087188 -0.673398 -3.348379 -15.036587 1.385757 -0.947949 -16.037424 -2.871117 -0.136230 -0.009753 -74.172829 17.496979 13.309442 -14.364438 -1.733982 -21.732811 -9.773247 15.021801 -2.563829 10.361158 -1.017382 -0.009605 70.998604 1.880249 6.036580 51.397121 -0.470085 4.379469 11.477859 -3.489477 -0.728350 -18.837763 3.632870 7.029809 26.232849 -1.312757 -2.294995 -7.369456 -14.292789 -14.196437 13.055182 -2.305288 -9.746981 47.880421 0.210053 3.396292 -0.855977 5.124827 12.356011 
2.420171 46.301548 17.067911 -4.528057 -1.581625 1.299142 25.789646 -2.919090 1.368894 -24.996693 2.087854 2.501897 -0.253701 -3.265281 -14.917898 1.764505 -0.845202 -15.919793 -2.978605 -0.526836 -0.009752 -73.926979 17.216803 14.132975 -15.220142 -1.762263 -22.110344 -10.002339 15.156333 -2.649111 10.605277 -1.144375 -0.009597 71.510704 -0.618677 7.354880 51.095013 -0.410761 3.733171 12.126084 -3.712265 -0.807148 -17.597124 2.627207 6.955503 26.232849 -1.312759 -2.294995 -7.967689 -14.621866 -14.389651 11.124247 -3.660378 -11.083588 51.986149 -0.040647 3.532870 4.996541 4.355982 11.849196 
2.628703 46.446312 18.232277 -4.475102 -1.142137 1.592065 25.693754 -3.085558 0.899238 -25.092737 1.961523 2.140092 -0.514698 -3.075431 -14.993172 1.775571 -0.675965 -15.977725 -3.095775 -0.419395 -0.009751 -73.494034 15.754364 15.998888 -16.083702 -1.788544 -22.432472 -10.189434 15.253863 -2.715937 10.419790 -0.792782 -0.009604 71.663055 -2.513693 8.828027 50.079578 -0.483281 4.662325 12.618823 -3.247689 -0.737086 -16.259609 2.060830 6.888826 26.428705 -1.303003 -2.302994 -9.243733 -15.153292 -14.842560 8.217592 -4.587729 -12.479444 56.713329 -0.343456 3.702972 8.383209 1.120074 12.113631 
2.837235 46.591061 19.396631 -4.427745 -0.712505 1.884863 25.600586 -3.251862 0.430104 -25.187490 1.835064 1.768548 -0.766428 -2.885710 -15.068624 1.789081 -0.516186 -16.045660 -3.212944 -0.311953 -0.009750 -73.109879 14.276809 17.849840 -16.942528 -1.814354 -22.758198 -10.387331 15.360253 -2.787672 10.234302 -0.441188 -0.009610 71.768974 -4.420807 10.296632 49.060169 -0.582312 5.584259 13.102282 -2.794262 -0.660246 -14.904337 1.482431 6.837552 26.623615 -1.290061 -2.339426 -10.537760 -15.666657 -15.253617 5.315202 -5.569597 -13.830020 61.438740 -0.674346 3.853334 11.779221 -2.084719 12.569447 
